<svg xmlns="http://www.w3.org/2000/svg" xmlns:xlink="http://www.w3.org/1999/xlink" width="90" height="94.151" viewBox="0 0 90 94.151">
  <defs>
    <linearGradient id="linear-gradient" x1="0.5" x2="0.5" y2="1" gradientUnits="objectBoundingBox">
      <stop offset="0" stop-color="#fcc535"/>
      <stop offset="1" stop-color="#ffd667"/>
    </linearGradient>
    <filter id="Rectangle_2220" x="0" y="6.151" width="90" height="88" filterUnits="userSpaceOnUse">
      <feOffset dy="3" input="SourceAlpha"/>
      <feGaussianBlur stdDeviation="3" result="blur"/>
      <feFlood flood-opacity="0.161"/>
      <feComposite operator="in" in2="blur"/>
      <feComposite in="SourceGraphic"/>
    </filter>
    <clipPath id="clip-path">
      <path id="Path_5144" data-name="Path 5144" d="M70.994,83.233H29.041A12.665,12.665,0,0,1,16.377,70.568V28.616A12.665,12.665,0,0,1,29.041,15.951H50.485L71.947.835c6.995,0,11.712,20.786,11.712,27.781V70.568A12.665,12.665,0,0,1,70.994,83.233Z" transform="translate(-16.377 -0.835)" fill="none" clip-rule="evenodd"/>
    </clipPath>
    <linearGradient id="linear-gradient-2" x1="0.5" y1="1" x2="0.5" gradientUnits="objectBoundingBox">
      <stop offset="0" stop-color="#ffd666"/>
      <stop offset="1" stop-color="#fbc536"/>
    </linearGradient>
  </defs>
  <g id="Group_4459" data-name="Group 4459" transform="translate(9)">
    <g transform="matrix(1, 0, 0, 1, -9, 0)" filter="url(#Rectangle_2220)">
      <rect id="Rectangle_2220-2" data-name="Rectangle 2220" width="72" height="70" rx="12" transform="translate(9 12.15)" fill="url(#linear-gradient)"/>
    </g>
    <g id="Group_4446" data-name="Group 4446" transform="translate(0 0)">
      <g id="Group_4444" data-name="Group 4444">
        <g id="Group_4443" data-name="Group 4443" clip-path="url(#clip-path)">
          <rect id="Rectangle_2238" data-name="Rectangle 2238" width="67.282" height="67.282" rx="24.784" transform="translate(0 15.116)" fill="url(#linear-gradient-2)"/>
          <path id="Path_5133" data-name="Path 5133" d="M50.172,154.653s27.307,3.189,35.913,3.925c2.345.2,6.425-.679,5.055-4.93a5.33,5.33,0,0,0-5.823-3.606s.269-3.011-3.532-3.241c-1.369-.083-4.639,1.351-7.577,3.438,0,0-1.8-3.7-6.989-.764C65.717,150.325,57.022,154.33,50.172,154.653Z" transform="translate(-32.903 -72.21)" fill="#5400ef" fill-rule="evenodd"/>
          <g id="Group_4440" data-name="Group 4440" transform="translate(4.671 6.394)">
            <g id="Group_4439" data-name="Group 4439">
              <path id="Path_5134" data-name="Path 5134" d="M97.6,109.2l13.334,6.474,4.693-9.667-8.408-17.469" transform="translate(-60.766 -50.115)" fill="#fff" stroke="#fbc536" stroke-linecap="round" stroke-linejoin="round" stroke-width="2.125"/>
              <path id="Path_5135" data-name="Path 5135" d="M38.852,87.183,25.518,80.709l4.693-9.667,18.927-4.2" transform="translate(-25.518 -39.507)" fill="#fff" stroke="#fbc536" stroke-linecap="round" stroke-linejoin="round" stroke-width="2.125"/>
              <path id="Path_5136" data-name="Path 5136" d="M111.748,125.331l-11.2-5.413,3.943-8.55,11.2,5.413Z" transform="translate(-62.209 -61.279)" fill="#5400ef" stroke="#fff" stroke-miterlimit="10" stroke-width="1.824"/>
              <path id="Path_5137" data-name="Path 5137" d="M40.455,91.375,28.984,85.814l3.943-8.55L44.4,82.825Z" transform="translate(-27.213 -44.602)" fill="#5400ef" stroke="#fff" stroke-miterlimit="10" stroke-width="1.824"/>
              <path id="Path_5138" data-name="Path 5138" d="M91.186,38.051,92,36.385c3.4-7,3.734-20.843-.266-22.785l-.167-.081c-3.007-1.46-14.589,6.717-18.068,13.884l-.809,1.667-.528,1.088L56.663,62.071l18.5,8.982L90.658,39.139Z" transform="translate(-40.748 -13.348)" fill="#fff" stroke="#fbc536" stroke-linecap="round" stroke-linejoin="round" stroke-width="2.125"/>
              <circle id="Ellipse_278" data-name="Ellipse 278" cx="5.188" cy="5.188" r="5.188" transform="translate(38.026 11.065)" fill="#5400ef"/>
              <path id="Path_5139" data-name="Path 5139" d="M60.211,109.687l-2.266,4.667,13.167,6.393,2.266-4.667" transform="translate(-41.374 -60.457)" fill="#5400ef" stroke="#fff" stroke-miterlimit="10" stroke-width="2.432"/>
            </g>
          </g>
          <g id="Group_4441" data-name="Group 4441" transform="translate(-43.415 56.806)">
            <path id="Path_5140" data-name="Path 5140" d="M-5.524,137.841C-6.882,134.8-31.434,103.9-28.6,123.486c0,0-24.07-18.358-32.651-8.655-1.128,1.273-.983,5.18,1.752,7.421,0,0-8.851,2.538-9.081,7.417-.188,4.033,4.765,9.211,13.392,9.2Z" transform="translate(68.583 -112.001)" fill="#5400ef" fill-rule="evenodd"/>
          </g>
          <g id="Group_4442" data-name="Group 4442" transform="translate(15.496 65.361)">
            <path id="Path_5141" data-name="Path 5141" d="M61.121,135.063l-3.757,7.825a1.694,1.694,0,0,1-.154.322l0,.006h0a1.685,1.685,0,1,1-2.828-1.831c.023-.035.048-.069.074-.1l5.2-7.2h0a.886.886,0,0,1,1.472.98Z" transform="translate(-50.315 -131.183)" fill="#fff"/>
            <path id="Path_5142" data-name="Path 5142" d="M73.04,137.253l-.431,6.5a1.267,1.267,0,0,1-.018.267v0h0a1.264,1.264,0,1,1-2.481-.485c.007-.031.014-.061.024-.092l1.608-6.464h0a.657.657,0,0,1,.233-.349.664.664,0,0,1,1.065.62Z" transform="translate(-58.134 -132.532)" fill="#5400ef"/>
            <path id="Path_5143" data-name="Path 5143" d="M53.376,129.891,48.983,134.7a1.3,1.3,0,0,1-.181.2l0,0h0a1.264,1.264,0,1,1-1.635-1.928c.025-.02.05-.039.076-.057l5.292-4.045h0a.665.665,0,0,1,.845,1.023Z" transform="translate(-46.701 -128.742)" fill="#5400ef"/>
          </g>
        </g>
      </g>
      <g id="Group_4445" data-name="Group 4445" transform="translate(16.606 22.168)">
        <path id="Path_5145" data-name="Path 5145" d="M59.475,48.559c-.228-.512-4.356-5.706-3.879-2.413,0,0-4.047-3.086-5.489-1.455a1.009,1.009,0,0,0,.295,1.247s-1.488.427-1.527,1.247c-.031.678.8,1.548,2.251,1.546Z" transform="translate(-48.873 -44.215)" fill="#fff" fill-rule="evenodd"/>
      </g>
    </g>
  </g>
</svg>
