<svg xmlns="http://www.w3.org/2000/svg" xmlns:xlink="http://www.w3.org/1999/xlink" width="90" height="95.368" viewBox="0 0 90 95.368">
  <defs>
    <linearGradient id="linear-gradient" x1="0.5" x2="0.5" y2="1" gradientUnits="objectBoundingBox">
      <stop offset="0" stop-color="#0078ef"/>
      <stop offset="1" stop-color="#3097ff"/>
    </linearGradient>
    <filter id="Rectangle_2221" x="0" y="7.368" width="90" height="88" filterUnits="userSpaceOnUse">
      <feOffset dy="3" input="SourceAlpha"/>
      <feGaussianBlur stdDeviation="3" result="blur"/>
      <feFlood flood-opacity="0.161"/>
      <feComposite operator="in" in2="blur"/>
      <feComposite in="SourceGraphic"/>
    </filter>
    <clipPath id="clip-path">
      <path id="Path_5132" data-name="Path 5132" d="M72.581,89.45H28.507A13.3,13.3,0,0,1,15.2,76.145V32.071A13.305,13.305,0,0,1,28.507,18.766H46.5l13.235-13.5C94.659,10.409,93.924,42.4,93.924,49.745l-8.038,6.617V76.145A13.3,13.3,0,0,1,72.581,89.45Z" transform="translate(-15.202 -5.262)" fill="none" clip-rule="evenodd"/>
    </clipPath>
  </defs>
  <g id="Group_4458" data-name="Group 4458" transform="translate(9)">
    <g transform="matrix(1, 0, 0, 1, -9, 0)" filter="url(#Rectangle_2221)">
      <rect id="Rectangle_2221-2" data-name="Rectangle 2221" width="72" height="70" rx="12" transform="translate(9 13.37)" fill="url(#linear-gradient)"/>
    </g>
    <g id="Group_4438" data-name="Group 4438" transform="translate(0 0)">
      <g id="Group_4435" data-name="Group 4435" clip-path="url(#clip-path)">
        <g id="Group_4431" data-name="Group 4431" transform="translate(1.158 59.228)">
          <path id="Path_5121" data-name="Path 5121" d="M80.253,141.362c-1.354-3.037-25.843-33.855-23.013-14.319,0,0-24.008-18.31-32.567-8.632-1.125,1.27-.98,5.166,1.747,7.4,0,0-8.828,2.532-9.057,7.4-.187,4.023,4.753,9.187,13.357,9.172Z" transform="translate(-17.358 -115.588)" fill="#5400ef" fill-rule="evenodd"/>
        </g>
        <g id="Group_4433" data-name="Group 4433" transform="translate(12.949 26.145)">
          <g id="HAND-2">
            <g id="Path_5122" data-name="Path 5122" transform="translate(-39.322 -53.964)" fill="#fff" stroke-linecap="round" stroke-linejoin="round" fill-rule="evenodd">
              <path d="M 76.760498046875 116.5300903320312 L 75.68453216552734 116.5300903320312 L 39.32199478149414 116.5300903320312 L 37.91006469726562 116.5300903320312 L 38.11935424804688 115.1337585449219 C 38.13420486450195 115.0347137451172 39.63174438476562 105.1061325073242 42.03638458251953 94.47347259521484 C 43.45290756225586 88.2099609375 44.90402603149414 82.92391204833984 46.34941482543945 78.76216125488281 C 48.23177719116211 73.34223937988281 50.07243728637695 69.87306976318359 51.9765739440918 68.15640258789062 L 51.9821662902832 68.15135955810547 L 51.98782730102539 68.14639282226562 C 52.07065963745117 68.07355499267578 60.22359085083008 60.90132904052734 62.66437149047852 58.49893951416016 C 62.99677276611328 58.05159759521484 64.57340240478516 55.98069000244141 66.02811431884766 54.93710327148438 L 66.0313720703125 54.93476104736328 L 66.03465270996094 54.93244171142578 C 66.50434875488281 54.60018157958984 67.05668640136719 54.42455291748047 67.63197326660156 54.42455291748047 C 67.81211853027344 54.42455291748047 67.99305725097656 54.44233322143555 68.16976928710938 54.47740173339844 C 68.90945434570312 54.62362289428711 69.56609344482422 55.07403182983398 69.97044372558594 55.71297073364258 C 70.48708343505859 56.52851104736328 71.09114837646484 57.97970199584961 71.03318786621094 60.25905227661133 C 70.98558044433594 62.13137054443359 70.50464630126953 64.29361724853516 69.60066986083984 66.70778656005859 L 81.33424377441406 64.29378509521484 C 81.91106414794922 63.36203765869141 83.31041717529297 61.16314315795898 85.005126953125 58.93515014648438 C 86.30856323242188 57.22154235839844 87.51756286621094 55.84812164306641 88.59853363037109 54.85303115844727 C 90.13712310791016 53.43669128417969 91.45822906494141 52.74819183349609 92.63733673095703 52.74819183349609 C 92.95817565917969 52.74819183349609 93.26844024658203 52.79950714111328 93.56011962890625 52.90073776245117 C 93.81081390380859 52.98041152954102 94.19502258300781 53.17811965942383 94.49825286865234 53.66724014282227 C 94.85160827636719 54.23722076416016 94.99492645263672 55.0465202331543 94.93641662597656 56.14139175415039 C 94.90305328369141 56.76559829711914 94.80232238769531 57.4920654296875 94.63541412353516 58.31496047973633 C 94.99674224853516 58.20416641235352 95.37369537353516 58.13555145263672 95.75312805175781 58.13555145263672 C 96.58879852294922 58.13555145263672 97.32848358154297 58.45741271972656 97.89224243164062 59.06633377075195 L 97.95494842529297 59.13406372070312 L 98.0067138671875 59.21047210693359 C 98.15220642089844 59.42526245117188 98.61871337890625 60.26986312866211 98.51300811767578 62.12016296386719 C 98.41139221191406 63.8988037109375 97.82752990722656 66.08321380615234 96.77349090576172 68.63445281982422 C 96.80240631103516 68.63397216796875 96.83133697509766 68.63373565673828 96.86028289794922 68.63373565673828 C 97.87509918212891 68.63373565673828 98.66518402099609 68.92937469482422 99.20859527587891 69.51244354248047 C 99.56533813476562 69.89521026611328 99.97370910644531 70.59101867675781 99.89326477050781 71.73217010498047 C 99.81740570068359 72.81397247314453 99.27886199951172 73.81251525878906 98.41576385498047 74.47132873535156 L 98.41002655029297 74.47571563720703 L 98.40423583984375 74.48001861572266 C 96.3067626953125 76.04196166992188 88.93583679199219 81.3626708984375 80.5726318359375 85.46611022949219 L 76.89155578613281 115.4621429443359 L 76.760498046875 116.5300903320312 Z" stroke="none"/>
              <path d="M 75.68453216552734 115.3140182495117 L 79.44619750976562 84.66133880615234 C 87.92294311523438 80.58563995361328 95.40707397460938 75.19573211669922 97.67791748046875 73.50468444824219 C 98.26307678222656 73.05802154541016 98.628662109375 72.38159942626953 98.68020629882812 71.64665985107422 C 98.88741302490234 68.70690155029297 94.71829986572266 70.25946044921875 94.71830749511719 70.25946044921875 C 98.55780792236328 62.19232177734375 96.99989318847656 59.89249038696289 96.99989318847656 59.89249038696289 C 95.48545074462891 58.2567138671875 92.73251342773438 60.85289001464844 92.73251342773438 60.8528938293457 C 94.68287658691406 54.31576156616211 93.1807861328125 54.05646133422852 93.1807861328125 54.05646133422852 C 89.63454437255859 52.76964569091797 82.09658813476562 65.37847900390625 82.09658813476562 65.37847900390625 L 67.60396575927734 68.36011505126953 C 70.80570220947266 61.22492218017578 69.85871887207031 57.80899047851562 68.94285583496094 56.36327362060547 C 68.71523284912109 56.00359344482422 68.35125732421875 55.75288009643555 67.93305206298828 55.67021179199219 C 67.51647186279297 55.58754730224609 67.08377838134766 55.67987060546875 66.73696899414062 55.92521286010742 C 65.27621459960938 56.9731330871582 63.58677673339844 59.29712295532227 63.58677673339844 59.29712295532227 C 61.17795562744141 61.68446350097656 52.79085540771484 69.05960845947266 52.79085540771484 69.05960845947266 C 45.23371505737305 75.87268829345703 39.32199478149414 115.3140182495117 39.32199478149414 115.3140182495117 L 75.68453216552734 115.3140182495117 M 75.68453216552734 117.7461624145508 L 39.32199478149414 117.7461624145508 C 38.61401748657227 117.7461624145508 37.94117736816406 117.4376754760742 37.47915649414062 116.9012298583984 C 37.01712417602539 116.3647918701172 36.81177520751953 115.6536636352539 36.91671752929688 114.953498840332 C 36.93163681030273 114.8540115356445 38.43585586547852 104.8810806274414 40.85026550292969 94.20523071289062 C 42.27675628662109 87.89765167236328 43.74044418334961 82.56761932373047 45.20065689086914 78.36318969726562 C 47.1519775390625 72.74472045898438 49.10204696655273 69.11061096191406 51.16229629516602 67.25320434570312 C 51.16975402832031 67.24648284912109 51.17724609375 67.23979949951172 51.18478393554688 67.23318481445312 C 51.26663208007812 67.16120910644531 59.25250244140625 60.13590240478516 61.74470520019531 57.69762420654297 C 62.21735763549805 57.06625747680664 63.78555297851562 55.04925155639648 65.31925201416016 53.94899368286133 C 65.32361602783203 53.94587326049805 65.32797241210938 53.9427604675293 65.33235931396484 53.93967056274414 C 66.00853729248047 53.46132278442383 66.80373382568359 53.20848083496094 67.63197326660156 53.20848083496094 C 67.89139556884766 53.20848083496094 68.15196228027344 53.23408126831055 68.40645599365234 53.28458023071289 C 69.470947265625 53.49501037597656 70.41617584228516 54.14322280883789 70.99803924560547 55.06267166137695 C 72.11766815185547 56.83005142211914 72.93836212158203 59.92059707641602 71.42263793945312 65.09140014648438 L 80.57925415039062 63.20756530761719 C 81.27546691894531 62.10377883911133 82.5443115234375 60.16164016723633 84.03723907470703 58.19893264770508 C 87.54432678222656 53.58824157714844 90.19669342041016 51.53212356567383 92.63733673095703 51.53212356567383 C 93.07693481445312 51.53212356567383 93.5047607421875 51.60050582885742 93.91068267822266 51.73551559448242 C 94.56005859375 51.93542098999023 95.13911437988281 52.39303588867188 95.53181457519531 53.02649307250977 C 96.09211730957031 53.93027877807617 96.27979278564453 55.19107055664062 96.08803558349609 56.93250274658203 C 97.12452697753906 57.01355743408203 98.07218170166016 57.47068405151367 98.78458404541016 58.24016189575195 C 98.86807250976562 58.3303337097168 98.94460296630859 58.42671203613281 99.01352691650391 58.5284538269043 C 99.60448455810547 59.40083312988281 100.54833984375 61.88764572143555 98.45674133300781 67.65475463867188 C 99.2303466796875 67.90627288818359 99.75688934326172 68.31710815429688 100.0982131958008 68.68333435058594 C 100.6194763183594 69.24264526367188 101.2175140380859 70.24043273925781 101.1063232421875 71.81768035888672 C 101.0060653686523 73.24741363525391 100.294303894043 74.56726837158203 99.15362548828125 75.43797302246094 C 99.14596557617188 75.44380950927734 99.13827514648438 75.44961547851562 99.13055419921875 75.45536041259766 C 97.06136322021484 76.99626159667969 89.91033935546875 82.158935546875 81.69980621337891 86.26481628417969 L 78.09856414794922 115.6102752685547 C 77.94891357421875 116.8297882080078 76.9132080078125 117.7461624145508 75.68453216552734 117.7461624145508 Z" stroke="none" fill="#1787f6"/>
            </g>
            <path id="Path_5123" data-name="Path 5123" d="M81.724,89.891a23.929,23.929,0,0,0,1.562-3.469.355.355,0,1,1,.708.049,22.232,22.232,0,0,1-1.405,3.451l0,.009a8.593,8.593,0,0,1,1.28.224A12.1,12.1,0,0,1,87.487,91.8a.584.584,0,0,1-.646.972,10.955,10.955,0,0,0-3.252-1.567,7.6,7.6,0,0,0-1.514-.257,12.638,12.638,0,0,1-1.345,2.168,3.2,3.2,0,0,1-1.942,1.137,1.436,1.436,0,0,1-1.447-.944,1.66,1.66,0,0,1,.29-1.914,4.727,4.727,0,0,1,2.2-1.25A7.652,7.652,0,0,1,81.724,89.891Zm-.576,1.062a6.515,6.515,0,0,0-1.068.167,3.629,3.629,0,0,0-1.728.907.777.777,0,0,0-.172.891.749.749,0,0,0,.311.385.626.626,0,0,0,.464.015,2.64,2.64,0,0,0,1.127-.77A9.883,9.883,0,0,0,81.149,90.953Z" transform="translate(-56.845 -68.844)" fill="#1787f6" fill-rule="evenodd"/>
            <g id="Group_4432" data-name="Group 4432" transform="translate(31.729 11.424)">
              <path id="Path_5124" data-name="Path 5124" d="M107.42,76.658l.6-1.094,1.458-.319L108.342,77.4a.581.581,0,0,1-.293.26l-8.822,3.566a.583.583,0,0,1-.438-1.082Z" transform="translate(-98.426 -75.245)" fill="#1787f6" fill-rule="evenodd"/>
            </g>
            <path id="Path_5125" data-name="Path 5125" d="M113.379,74.783c3.792-7.062,7.114-9.99,8.946-11.167.06-.039.192-.115.192-.115l-.484,1.76s-.109.078-.165.125c-1.776,1.447-4.447,4.329-7.473,9.972a.756.756,0,0,1-.674.545L103.4,79.935a.583.583,0,1,1-.425-1.086Z" transform="translate(-68.63 -58.381)" fill="#1787f6" fill-rule="evenodd"/>
            <path id="Path_5126" data-name="Path 5126" d="M126.32,81.674s-19.826,9.368-19.844,9.416c-.114.3-.392.5-.242.789a.583.583,0,0,0,.789.242c.032-.063,18.681-9.017,18.681-9.017" transform="translate(-70.293 -66.798)" fill="#1787f6" fill-rule="evenodd"/>
            <path id="Path_5127" data-name="Path 5127" d="M106.943,111.211l-8.688,4.919a1.036,1.036,0,0,0,.234,1.9,58.569,58.569,0,0,1,6.454,2.478Z" transform="translate(-66.375 -80.478)" fill="#5400ef" fill-rule="evenodd"/>
          </g>
        </g>
        <circle id="Ellipse_276" data-name="Ellipse 276" cx="10.394" cy="10.394" r="10.394" transform="translate(44.886 18.426)" fill="#5400ef"/>
        <circle id="Ellipse_277" data-name="Ellipse 277" cx="10.394" cy="10.394" r="10.394" transform="translate(43.338 16.878)" fill="#5400ef" stroke="#fff" stroke-miterlimit="10" stroke-width="2"/>
        <text id="_" data-name="$" transform="translate(56.889 31.692)" fill="#fff" font-size="13" font-family="Montserrat-Bold, Montserrat" font-weight="700" letter-spacing="0.01em"><tspan x="-8.294" y="0">$</tspan></text>
        <g id="Group_4434" data-name="Group 4434" transform="translate(36.845 4.764)">
          <path id="Path_5128" data-name="Path 5128" d="M96.164,24.743,91.2,17.32a1.761,1.761,0,0,1-.2-.305l0-.005h0a1.734,1.734,0,1,1,3.1-1.549c.019.039.036.079.052.12L97.8,23.951h0a.912.912,0,0,1-1.638.791Z" transform="translate(-87.058 -14.293)" fill="#1787f6"/>
          <path id="Path_5129" data-name="Path 5129" d="M90.052,34.177,84.52,30.4a1.274,1.274,0,0,1-.228-.156l0,0h0a1.3,1.3,0,1,1,1.728-1.945c.024.022.047.045.069.069l4.887,4.807h0a.684.684,0,0,1-.92,1.009Z" transform="translate(-83.835 -20.534)" fill="#5400ef"/>
          <path id="Path_5130" data-name="Path 5130" d="M107.551,22.354l-1.961-6.408a1.289,1.289,0,0,1-.081-.264l0,0h0a1.3,1.3,0,1,1,2.564-.44q.007.048.011.1l.816,6.806h0a.684.684,0,0,1-1.349.214Z" transform="translate(-93.863 -14.135)" fill="#5400ef"/>
        </g>
        <path id="Path_5131" data-name="Path 5131" d="M36.339,98.563s-7.433-9.767-8.217-3.5c0,0-2.466-.416-2.555,1.71C25.533,97.582,26.443,99.259,36.339,98.563Z" transform="translate(-20.002 -45.881)" fill="#fff" fill-rule="evenodd"/>
      </g>
    </g>
  </g>
</svg>
