<svg xmlns="http://www.w3.org/2000/svg" width="17.938" height="17.362" viewBox="0 0 17.938 17.362">
  <g id="Group_3669" data-name="Group 3669" transform="translate(-591 -358.319)">
    <path id="Trazado_2878" data-name="Trazado 2878" d="M593.625,375.681a2.588,2.588,0,0,1-2.587-2.586v-6.3a2.587,2.587,0,1,1,5.173-.1v6.4A2.59,2.59,0,0,1,593.625,375.681Zm0-10.075a1.19,1.19,0,0,0-1.187,1.189v6.3a1.189,1.189,0,0,0,2.377,0v-6.3a1.19,1.19,0,0,0-1.19-1.187Zm6.362,10.075a2.589,2.589,0,0,1-2.587-2.587v-2.525a2.587,2.587,0,1,1,5.173-.1v2.626a2.589,2.589,0,0,1-2.587,2.587Zm0-6.3a1.19,1.19,0,0,0-1.188,1.188v2.525a1.189,1.189,0,0,0,2.377,0v-2.525a1.191,1.191,0,0,0-1.19-1.188Zm6.362,6.3a2.589,2.589,0,0,1-2.587-2.587v-5.776a2.587,2.587,0,0,1,5.173,0v5.776a2.589,2.589,0,0,1-2.587,2.587Zm0-9.551a1.19,1.19,0,0,0-1.188,1.188v5.776a1.189,1.189,0,0,0,2.377,0v-5.776a1.191,1.191,0,0,0-1.19-1.188Z" fill="#fff"/>
    <path id="Trazado_2879" data-name="Trazado 2879" d="M600.648,366.866a2.431,2.431,0,0,1-1.516-.527l-4.475-4.063a1.046,1.046,0,0,0-1.324.046l-1.1,1.092a.7.7,0,0,1-.983-.994l1.137-1.127a2.441,2.441,0,0,1,3.154-.1l4.475,4.063a1.051,1.051,0,0,0,1.413-.134l.013-.014,3.876-4.069a.7.7,0,0,1,1.059.915c-.015.017-.03.034-.046.049l-3.87,4.063a2.444,2.444,0,0,1-1.814.8Zm8.29-4.542v-1.885a2.1,2.1,0,0,0-2.1-2.1H604.95a.7.7,0,1,0,0,1.4h1.888a.7.7,0,0,1,.7.7v1.885a.7.7,0,1,0,1.4,0Z" fill="#13d6cc"/>
    <rect id="Rectangle_1486" data-name="Rectangle 1486" width="12.277" height="1.383" rx="0.571" transform="translate(591 358.319)" fill="#13d6cc"/>
  </g>
</svg>
