<svg xmlns="http://www.w3.org/2000/svg" width="16.551" height="19.532" viewBox="0 0 16.551 19.532">
  <g id="Group_9674" data-name="Group 9674" transform="translate(-509.274 -20)">
    <path id="Path_5123" data-name="Path 5123" d="M69.577,4.788a4.788,4.788,0,1,0-4.788,4.788A4.794,4.794,0,0,0,69.577,4.788Zm-4.788,3.37a3.37,3.37,0,1,1,3.37-3.37A3.374,3.374,0,0,1,64.788,8.158Z" transform="translate(451.402 20)" fill="#fff"/>
    <path id="Path_5124" data-name="Path 5124" d="M.709,317.165A.709.709,0,0,1,0,316.456,6.463,6.463,0,0,1,6.456,310H7.52a.709.709,0,1,1,0,1.419H6.456a5.042,5.042,0,0,0-5.037,5.037A.709.709,0,0,1,.709,317.165Z" transform="translate(509.274 -279.004)" fill="#fff"/>
    <g id="star_1_" data-name="star (1)" transform="translate(516.193 29.899)">
      <path id="Path_5057" data-name="Path 5057" d="M4.722,9.363h0a.945.945,0,0,1-.935-.741L3.531,7.53A2.21,2.21,0,0,0,1.873,5.872L.781,5.616a.96.96,0,0,1,0-1.87l1.091-.255A2.21,2.21,0,0,0,3.531,1.833L3.787.741a.96.96,0,0,1,1.87,0l.255,1.091A2.21,2.21,0,0,0,7.57,3.491l1.091.255a.96.96,0,0,1,0,1.87L7.57,5.872A2.21,2.21,0,0,0,5.912,7.53L5.656,8.622A.945.945,0,0,1,4.722,9.363Zm0-8.632A.216.216,0,0,0,4.5.908L4.244,2a2.955,2.955,0,0,1-2.2,2.2L.948,4.459a.229.229,0,0,0,0,.445l1.091.255a2.955,2.955,0,0,1,2.2,2.2L4.5,8.455a.229.229,0,0,0,.445,0L5.2,7.364a2.955,2.955,0,0,1,2.2-2.2L8.5,4.9a.229.229,0,0,0,0-.445L7.4,4.2a2.952,2.952,0,0,1-1.416-.788A4.689,4.689,0,0,1,4.944.908.216.216,0,0,0,4.722.731Z" transform="translate(-0.041 0)" fill="#13d6cc" stroke="#13d6cc" stroke-width="0.54"/>
    </g>
  </g>
</svg>
