<svg xmlns="http://www.w3.org/2000/svg" xmlns:xlink="http://www.w3.org/1999/xlink" width="90" height="96.26" viewBox="0 0 90 96.26">
  <defs>
    <linearGradient id="linear-gradient" x1="0.5" x2="0.5" y2="1" gradientUnits="objectBoundingBox">
      <stop offset="0" stop-color="#ff50b8"/>
      <stop offset="1" stop-color="#ff6dc3"/>
    </linearGradient>
    <filter id="Rectangle_2219" x="0" y="8.26" width="90" height="88" filterUnits="userSpaceOnUse">
      <feOffset dy="3" input="SourceAlpha"/>
      <feGaussianBlur stdDeviation="3" result="blur"/>
      <feFlood flood-opacity="0.161"/>
      <feComposite operator="in" in2="blur"/>
      <feComposite in="SourceGraphic"/>
    </filter>
    <clipPath id="clip-path">
      <path id="Path_5169" data-name="Path 5169" d="M74.661,87.206H29.61a13.382,13.382,0,0,1-13.6-13.154V30.48a13.382,13.382,0,0,1,13.6-13.154l32.546-14.8L81.32,9.428c7.511,0,6.941,13.787,6.941,21.052V74.053A13.382,13.382,0,0,1,74.661,87.206Z" transform="translate(-17.76 -1.523)" fill="none" clip-rule="evenodd"/>
    </clipPath>
    <linearGradient id="linear-gradient-2" x1="0.5" y1="1" x2="0.5" gradientUnits="objectBoundingBox">
      <stop offset="0" stop-color="#ff56ba"/>
      <stop offset="1" stop-color="#ff51b9"/>
    </linearGradient>
  </defs>
  <g id="Group_4460" data-name="Group 4460" transform="translate(-72 -96.74)">
    <g transform="matrix(1, 0, 0, 1, 72, 96.74)" filter="url(#Rectangle_2219)">
      <rect id="Rectangle_2219-2" data-name="Rectangle 2219" width="72" height="70" rx="12" transform="translate(9 14.26)" fill="url(#linear-gradient)"/>
    </g>
    <g id="Group_4455" data-name="Group 4455" transform="translate(65.566 93.217)">
      <g id="Group_4454" data-name="Group 4454" transform="translate(17.161 2.523)" clip-path="url(#clip-path)">
        <rect id="Rectangle_2239" data-name="Rectangle 2239" width="69.706" height="70.703" rx="24.784" transform="translate(-0.028 14.98)" fill="url(#linear-gradient-2)"/>
        <path id="Path_5146" data-name="Path 5146" d="M164.494,134.868s-74.738.562-98.215,0c-6.4-.153-17.164-3.784-12.205-15.027,1-2.259,5.737-10.4,16.8-8.139,0,0,.161-8.335,10.5-7.826,3.724.182,12.139,5.094,19.461,11.693,0,0,5.961-9.594,19.115,0C123.762,118.347,146.079,131.931,164.494,134.868Z" transform="translate(-33.353 -48.44)" fill="#5400ef" fill-rule="evenodd"/>
        <g id="Group_4453" data-name="Group 4453" transform="translate(-15.601 4.3)">
          <g id="Group_4451" data-name="Group 4451" transform="translate(0)">
            <g id="Group_4448" data-name="Group 4448">
              <g id="Path_5147" data-name="Path 5147" transform="translate(11.932 -30.02)" fill="#ff56ba" stroke-miterlimit="10">
                <path d="M -8.451308250427246 75.46999359130859 C -9.539328575134277 75.46999359130859 -10.46857833862305 74.68688201904297 -10.66083812713623 73.60793304443359 L -11.45392894744873 69.154541015625 C -11.66602897644043 67.962646484375 -10.91326904296875 66.81923675537109 -9.740218162536621 66.55132293701172 L 56.1953125 51.46735382080078 C 56.35921096801758 51.42991256713867 56.52678298950195 51.41097259521484 56.69375228881836 51.41097259521484 C 57.7519416809082 51.41097259521484 58.65296173095703 52.13741302490234 58.88486099243164 53.17754364013672 L 59.86551284790039 57.58856201171875 C 60.13460159301758 58.80064392089844 59.37488174438477 60.01091384887695 58.17204284667969 60.28680419921875 L -7.952008724212646 75.41344451904297 C -8.115828514099121 75.45094299316406 -8.283888816833496 75.46999359130859 -8.451308250427246 75.46999359130859 Z" stroke="none"/>
                <path d="M -8.451295852661133 74.25392150878906 C -8.376145362854004 74.25392150878906 -8.299728393554688 74.24552154541016 -8.223196029663086 74.22799682617188 L 57.90017700195312 59.10151290893555 C 58.45500564575195 58.97425842285156 58.80335998535156 58.41524124145508 58.67841720581055 57.85247039794922 L 57.69793319702148 53.44217300415039 C 57.57246017456055 52.87941741943359 57.02134704589844 52.52604293823242 56.46650314331055 52.65280151367188 L -9.469452857971191 67.73685455322266 C -10.00786685943604 67.85982513427734 -10.35463905334473 68.39093017578125 -10.25669574737549 68.94132995605469 L -9.463624000549316 73.39458465576172 C -9.373271942138672 73.90162658691406 -8.938113212585449 74.25392150878906 -8.451295852661133 74.25392150878906 M -8.451295852661133 76.68607330322266 C -10.12948131561279 76.68607330322266 -11.5622386932373 75.48125457763672 -11.85803890228271 73.8212890625 L -12.65116691589355 69.36775970458984 C -12.97710990905762 67.53608703613281 -11.81738185882568 65.77834320068359 -10.01099586486816 65.36576843261719 L 55.92411804199219 50.28189849853516 C 56.17703247070312 50.22412872314453 56.43574523925781 50.19490051269531 56.69374847412109 50.19490051269531 C 57.47436141967773 50.19490051269531 58.24096298217773 50.46457290649414 58.85231781005859 50.95425796508789 C 59.46684646606445 51.44647216796875 59.89993286132812 52.14208602905273 60.0717887878418 52.91292953491211 L 61.05260467529297 57.32465744018555 C 61.46609115600586 59.18712997436523 60.29576110839844 61.04735565185547 58.44390487670898 61.47209930419922 L -7.680824279785156 76.59889984130859 C -7.933152675628662 76.65670013427734 -8.192595481872559 76.68607330322266 -8.451295852661133 76.68607330322266 Z" stroke="none" fill="#fff"/>
              </g>
              <path id="Path_5148" data-name="Path 5148" d="M-9.469,67.737,56.466,52.653a1.03,1.03,0,0,1,1.231.789l.98,4.41A1.046,1.046,0,0,1,57.9,59.1L-8.223,74.228a1.03,1.03,0,0,1-1.24-.833l-.793-4.453A1.044,1.044,0,0,1-9.469,67.737Z" transform="translate(11.932 -30.02)" fill="#ff56ba"/>
              <g id="Path_5149" data-name="Path 5149" transform="translate(13.101 -10.528)" fill="#fff" stroke-linecap="round" stroke-linejoin="round">
                <path d="M -9.708661079406738 48.17794036865234 C -10.75278091430664 48.17794036865234 -11.72007083892822 47.56511306762695 -12.17294025421143 46.61667251586914 L -13.54780101776123 43.73794174194336 C -13.8580207824707 43.08843231201172 -13.90455055236816 42.35403060913086 -13.67881107330322 41.67005157470703 C -13.45206069946289 40.9830322265625 -12.97571086883545 40.42188262939453 -12.33752059936523 40.08996200561523 L 45.95145797729492 9.772041320800781 C 46.33769989013672 9.571231842041016 46.77040100097656 9.465141296386719 47.20293807983398 9.465141296386719 C 48.23701858520508 9.465141296386719 49.17078018188477 10.04210186004639 49.63982772827148 10.97088146209717 L 51.08808898925781 13.83527183532715 C 51.7700080871582 15.18384170532227 51.23946762084961 16.84563255310059 49.90542984008789 17.53963088989258 L -8.457571029663086 47.87119293212891 C -8.843730926513672 48.07187271118164 -9.276340484619141 48.17794036865234 -9.708661079406738 48.17794036865234 Z" stroke="none"/>
                <path d="M -9.708659172058105 47.11532974243164 C -9.452279090881348 47.11532974243164 -9.19188117980957 47.05526733398438 -8.947590827941895 46.92831039428711 L 49.41501998901367 16.59695243835449 C 50.23667907714844 16.16950225830078 50.56121826171875 15.14815139770508 50.13980102539062 14.31474208831787 L 48.69131088256836 11.44990158081055 C 48.27041625976562 10.61649131774902 47.26292037963867 10.28785133361816 46.44179916381836 10.71476173400879 L -11.84721088409424 41.03269195556641 C -12.65564060211182 41.45315170288086 -12.98493099212646 42.45088195800781 -12.5889310836792 43.27999114990234 L -11.21403026580811 46.1588020324707 C -10.92491054534912 46.76430511474609 -10.32848739624023 47.11532974243164 -9.708659172058105 47.11532974243164 M -9.708661079406738 49.24056243896484 C -11.15988063812256 49.24056243896484 -12.50356101989746 48.39035034179688 -13.13185024261475 47.07454299926758 L -14.50667095184326 44.19589233398438 C -14.93559074401855 43.2978630065918 -14.99995040893555 42.28254318237305 -14.68788051605225 41.33701324462891 C -14.37380027770996 40.38539123535156 -13.71323108673096 39.60771179199219 -12.82783031463623 39.14722061157227 L 45.46112060546875 8.82932186126709 C 45.99829864501953 8.550042152404785 46.60049057006836 8.402522087097168 47.20293807983398 8.402522087097168 C 48.64027786254883 8.402522087097168 49.9374885559082 9.203102111816406 50.58834075927734 10.49185180664062 L 52.0363883972168 13.35581207275391 C 52.97964859008789 15.22122192382812 52.24372100830078 17.5210018157959 50.39583969116211 18.4823112487793 L -7.967550754547119 48.81408309936523 C -8.504460334777832 49.09309005737305 -9.106511116027832 49.24056243896484 -9.708661079406738 49.24056243896484 Z" stroke="none" fill="#fff"/>
              </g>
              <g id="Path_5150" data-name="Path 5150" transform="translate(13.101 -10.528)" fill="#fff" stroke-linecap="round" stroke-linejoin="round">
                <path d="M -9.708661079406738 46.05271148681641 C -9.891631126403809 46.05271148681641 -10.13128089904785 45.96030044555664 -10.25512027740479 45.70093154907227 L -11.63006019592285 42.82204055786133 C -11.77869033813477 42.51084136962891 -11.65615081787109 42.13106155395508 -11.35690021514893 41.97542190551758 L 46.9321403503418 11.6574821472168 C 47.01773834228516 11.61298179626465 47.1088981628418 11.59037208557129 47.20293807983398 11.59037208557129 C 47.43046951293945 11.59037208557129 47.6373291015625 11.72009181976318 47.74279022216797 11.92892169952393 L 49.19150924682617 14.79421138763428 C 49.3507194519043 15.10908126831055 49.23098754882812 15.49488162994385 48.92461013793945 15.65427207946777 L -9.437610626220703 45.98543167114258 C -9.523520469665527 46.03007125854492 -9.614720344543457 46.05271148681641 -9.708661079406738 46.05271148681641 Z" stroke="none"/>
                <path d="M -9.498493194580078 44.81951522827148 L 48.05789566040039 14.90715789794922 L 47.00204849243164 12.81888103485107 L -10.49810600280762 42.72650146484375 L -9.498493194580078 44.81951522827148 M -9.708659172058105 47.11532974243164 C -10.32848739624023 47.11532974243164 -10.92491054534912 46.76430511474609 -11.21403026580811 46.1588020324707 L -12.5889310836792 43.27999114990234 C -12.98493099212646 42.45088195800781 -12.65564060211182 41.45315170288086 -11.84721088409424 41.03269195556641 L 46.44179916381836 10.71476173400879 C 47.26292419433594 10.28785228729248 48.27042007446289 10.61649131774902 48.69131088256836 11.44990158081055 L 50.13980102539062 14.31474208831787 C 50.56121826171875 15.14815139770508 50.23667907714844 16.16950225830078 49.41501998901367 16.59695243835449 L -8.947590827941895 46.92831039428711 C -9.19188117980957 47.05526733398438 -9.452279090881348 47.11532974243164 -9.708659172058105 47.11532974243164 Z" stroke="none" fill="#ff56ba"/>
              </g>
              <g id="Path_5151" data-name="Path 5151" transform="translate(9.509 -35.782)" fill="#fff" stroke-linecap="round" stroke-linejoin="round">
                <path d="M 5.629510402679443 119.3559875488281 C 4.770220279693604 119.3559875488281 3.924560308456421 119.0576324462891 3.248320341110229 118.5159072875977 C 2.564700365066528 117.9682540893555 2.082590341567993 117.1923370361328 1.890780329704285 116.3310775756836 L -6.162279605865479 80.11343383789062 L -6.391519546508789 79.08246612548828 L -5.361959457397461 78.84693145751953 L 59.38597869873047 64.03514099121094 L 60.42815017700195 63.79673385620117 L 60.66022109985352 64.84034729003906 L 68.71372985839844 101.0571136474609 C 69.1763916015625 103.1378555297852 67.87806701660156 105.213752746582 65.81957244873047 105.6846466064453 L 6.478590488433838 119.259765625 C 6.199470520019531 119.323616027832 5.913800239562988 119.3559875488281 5.629510402679443 119.3559875488281 Z" stroke="none"/>
                <path d="M 5.629521369934082 118.2933654785156 C 5.831332206726074 118.2933654785156 6.036505699157715 118.2708282470703 6.24162483215332 118.2238998413086 L 65.58261108398438 104.6487884521484 C 67.0755615234375 104.3072662353516 68.01316070556641 102.8020782470703 67.67646026611328 101.2877731323242 L 59.6229362487793 65.07100677490234 L -5.124997615814209 79.88280487060547 L 2.927991390228271 116.1001052856445 C 3.218901872634888 117.4063720703125 4.362443447113037 118.2933654785156 5.629521369934082 118.2933654785156 M 5.629524707794189 120.4186019897461 C 4.529602527618408 120.4186019897461 3.448002576828003 120.0374069213867 2.583969354629517 119.3452224731445 C 1.712291479110718 118.6469345092773 1.097769260406494 117.6585235595703 0.8535803556442261 116.5620803833008 L -7.199563980102539 80.34409332275391 C -7.453219413757324 79.20326995849609 -6.738163948059082 78.07170104980469 -5.598919868469238 77.81108856201172 L 59.14901351928711 62.99929046630859 C 59.70064926147461 62.87309265136719 60.27982330322266 62.97211837768555 60.75821304321289 63.2744026184082 C 61.23659133911133 63.57669067382812 61.57465744018555 64.05728912353516 61.69749069213867 64.60968017578125 L 69.75101470947266 100.8264465332031 C 70.34007263183594 103.475700378418 68.68272399902344 106.1197509765625 66.05653381347656 106.7205047607422 L 6.715558052062988 120.2956161499023 C 6.358802795410156 120.3772277832031 5.99341344833374 120.4186019897461 5.629524707794189 120.4186019897461 Z" stroke="none" fill="#ff56ba"/>
              </g>
              <g id="Group_4447" data-name="Group 4447" transform="translate(1.5 0.887)">
                <g id="Path_5152" data-name="Path 5152" transform="translate(-45.159 -31.632)" fill="#fff" stroke-linecap="round" stroke-linejoin="round">
                  <path d="M 110.5380325317383 59.41217803955078 L 112.7397918701172 56.5930061340332 L 113.0761947631836 58.10626983642578 C 113.1607437133789 58.48669052124023 112.9300994873047 58.86484909057617 112.5620498657227 58.94921112060547 L 110.5380325317383 59.41217803955078 Z" stroke="none"/>
                  <path d="M 113.2658996582031 54.19300079345703 L 113.4062042236328 54.69401168823242 L 114.1134796142578 57.87567901611328 C 114.3247299194336 58.82614898681641 113.7365493774414 59.77017974853516 112.7994613647461 59.98497009277344 L 107.8600006103516 61.11479949951172 L 113.2658996582031 54.19300079345703 Z" stroke="none" fill="#ff56ba"/>
                </g>
                <g id="Path_5153" data-name="Path 5153" transform="translate(10.573 -38.924)" fill="#fff" stroke-linecap="round" stroke-linejoin="round">
                  <path d="M -8.562999725341797 81.20037841796875 L -9.349400520324707 76.78416442871094 L 13.47909069061279 71.56158447265625 L 9.985438346862793 76.95731353759766 L -8.562999725341797 81.20037841796875 Z" stroke="none"/>
                  <path d="M 11.16452217102051 73.18116760253906 L -8.125810623168945 77.59430694580078 L -7.712427139282227 79.91574096679688 L 9.327944755554199 76.01765441894531 L 11.16452217102051 73.18116760253906 M 15.79364490509033 69.94200897216797 L 10.64293479919434 77.89697265625 L -9.413575172424316 82.48501586914062 L -10.57300472259521 75.97402954101562 L 15.79364490509033 69.94200897216797 Z" stroke="none" fill="#ff56ba"/>
                </g>
                <g id="Path_5154" data-name="Path 5154" transform="translate(-20.578 -33.469)" fill="#fff" stroke-linecap="round" stroke-linejoin="round">
                  <path d="M 57.93869781494141 67.65782928466797 L 61.43271636962891 62.26208877563477 L 72.29213714599609 59.77796173095703 L 68.80457305908203 65.17225646972656 L 57.93869781494141 67.65782928466797 Z" stroke="none"/>
                  <path d="M 69.98007965087891 61.39691925048828 L 62.09018707275391 63.20175933837891 L 60.25339508056641 66.03828430175781 L 68.14666748046875 64.23268127441406 L 69.98007965087891 61.39691925048828 M 74.60420227050781 58.15900421142578 L 69.46247863769531 66.11182403564453 L 55.62400817871094 69.27738189697266 L 60.77525329589844 61.32242584228516 L 74.60420227050781 58.15900421142578 Z" stroke="none" fill="#ff56ba"/>
                </g>
                <path id="Path_5155" data-name="Path 5155" d="M3.457,52.9.414,61.888l12.51-6.5,3.053-9Z" transform="translate(5.403 -28.019)" fill="#ff56ba"/>
                <path id="Path_5156" data-name="Path 5156" d="M99.4,12.18l-.425.221-3.69,7.544,4.752-2.47a1.957,1.957,0,0,0,.832-2.617Z" transform="translate(-39.243 -12.18)" fill="#ff56ba"/>
                <path id="Path_5157" data-name="Path 5157" d="M50.847,28.569l-3.055,9,12.573-6.535,3.057-9.011Z" transform="translate(-16.892 -16.74)" fill="#ff56ba"/>
              </g>
              <g id="Path_5158" data-name="Path 5158" transform="translate(13.406 -36.998)" fill="#ff56ba" stroke-linecap="round" stroke-linejoin="round">
                <path d="M -9.72612476348877 82.03798675537109 C -9.726175308227539 82.03798675537109 -9.72620677947998 82.03798675537109 -9.726256370544434 82.03798675537109 C -10.76766681671143 82.03789520263672 -11.65468692779541 81.32117462158203 -11.88334655761719 80.2950439453125 L -14.21181678771973 69.82279205322266 C -14.47839641571045 68.62559509277344 -13.72983646392822 67.43003082275391 -12.5430965423584 67.15795135498047 L -11.39073657989502 66.89423370361328 C -11.23043632507324 66.85758209228516 -11.06600666046143 66.83901214599609 -10.90184688568115 66.83901214599609 C -10.48093700408936 66.83901214599609 -10.07056617736816 66.95942687988281 -9.715076446533203 67.18721008300781 L 1.456803321838379 74.34804534912109 C 1.939353346824646 74.65789031982422 2.280343294143677 75.13627624511719 2.417523384094238 75.69544219970703 L 2.717093467712402 76.91464233398438 C 2.861903429031372 77.50513458251953 2.766273260116577 78.11429595947266 2.447913408279419 78.63028717041016 C 2.13321328163147 79.14034271240234 1.639953374862671 79.49437713623047 1.059013366699219 79.62714385986328 L -9.235346794128418 81.98233032226562 C -9.396467208862305 82.01924133300781 -9.561684608459473 82.03798675537109 -9.72612476348877 82.03798675537109 Z" stroke="none"/>
                <path d="M -9.726186752319336 81.17847442626953 C -9.627493858337402 81.17848205566406 -9.527373313903809 81.16745758056641 -9.427036285400391 81.14447021484375 L 0.8675133585929871 78.78923034667969 C 1.607643365859985 78.62008666992188 2.065593481063843 77.86670684814453 1.882413387298584 77.11973571777344 L 1.582763314247131 75.90023040771484 C 1.498583316802979 75.55710601806641 1.287343382835388 75.26067352294922 0.9929834008216858 75.07166290283203 L -10.17880630493164 67.91089630126953 C -10.4821662902832 67.71649932861328 -10.84905529022217 67.65205383300781 -11.19899654388428 67.73208618164062 L -12.35101699829102 67.99571990966797 C -13.07949638366699 68.16274261474609 -13.53744697570801 68.89679718017578 -13.3727970123291 69.63624572753906 L -11.04440689086914 80.10810089111328 C -10.90241813659668 80.74530029296875 -10.34455490112305 81.17842102050781 -9.726186752319336 81.17847442626953 M -9.726057052612305 82.89749145507812 C -9.726096153259277 82.89749145507812 -9.726276397705078 82.89749145507812 -9.726326942443848 82.89749145507812 C -10.41753673553467 82.89744567871094 -11.09678649902344 82.65812683105469 -11.63895702362061 82.22362518310547 C -12.18474674224854 81.78623199462891 -12.56947708129883 81.16770172119141 -12.72227668762207 80.48199462890625 L -15.05083656311035 70.00935363769531 C -15.41971683502197 68.35269165039062 -14.38096618652344 66.697509765625 -12.7351770401001 66.32017517089844 L -11.58247661590576 66.05638122558594 C -11.3593168258667 66.00535583496094 -11.13041687011719 65.97951507568359 -10.90184688568115 65.97951507568359 C -10.31621646881104 65.97951507568359 -9.745476722717285 66.14688110351562 -9.251326560974121 66.46354675292969 L 1.920623421669006 73.62441253662109 C 2.589883327484131 74.05415344238281 3.062393426895142 74.71666717529297 3.252283334732056 75.49065399169922 L 3.551783323287964 76.70954132080078 C 3.751973390579224 77.52589416503906 3.61966347694397 78.36803436279297 3.179403305053711 79.08160400390625 C 2.742803335189819 79.78923034667969 2.057773351669312 80.28055572509766 1.250503420829773 80.46504974365234 L -9.043656349182129 82.82020568847656 C -9.267486572265625 82.8714599609375 -9.497196197509766 82.89749145507812 -9.726057052612305 82.89749145507812 Z" stroke="none" fill="#fff"/>
              </g>
            </g>
            <g id="Group_4450" data-name="Group 4450" transform="translate(46.393 37.326)">
              <g id="Group_4449" data-name="Group 4449">
                <path id="Path_5159" data-name="Path 5159" d="M104.776,114.164l5.9-1.349-.983-4.423-7.236-3.361" transform="translate(-87.508 -91.61)" fill="#ff56ba" stroke="#fff" stroke-linecap="round" stroke-linejoin="round" stroke-width="1.719"/>
                <path id="Path_5160" data-name="Path 5160" d="M81.094,118.66l-5.959,1.363-.912-4.1L79.1,109.6" transform="translate(-74.223 -93.728)" fill="#ff56ba" stroke="#fff" stroke-linecap="round" stroke-linejoin="round" stroke-width="1.719"/>
                <path id="Path_5161" data-name="Path 5161" d="M110.8,115.634l-4.983,1.14-.893-3.414,5.1-1.237Z" transform="translate(-88.67 -94.894)" fill="#5400ef"/>
                <path id="Path_5162" data-name="Path 5162" d="M81.411,122.5l-5.073,1.161-.715-3.214,4.928-1.207Z" transform="translate(-74.882 -98.186)" fill="#5400ef"/>
                <g id="Path_5163" data-name="Path 5163" transform="translate(-78.051 -80.038)" fill="#ff56ba" stroke-linecap="round" stroke-linejoin="round">
                  <path d="M 85.36351013183594 105.6891708374023 L 85.17580413818359 104.8450546264648 L 82.017822265625 90.64380645751953 L 81.90929412841797 90.15564727783203 L 81.90541839599609 90.13826751708984 L 81.90228271484375 90.12075042724609 C 81.90228271484375 90.12075042724609 81.90228271484375 90.12075042724609 81.90228271484375 90.12075042724609 C 81.90228271484375 90.12075805664062 81.86760711669922 89.93406677246094 81.74568176269531 89.41912841796875 C 81.36865997314453 87.82955932617188 81.42617797851562 85.57563018798828 81.89961242675781 83.39016723632812 C 82.27161407470703 81.67292785644531 82.98283386230469 79.56063079833984 84.25849151611328 79.24967956542969 L 84.33427429199219 79.23140716552734 C 84.47718048095703 79.19651794433594 84.63027954101562 79.17852020263672 84.78682708740234 79.17852020263672 C 86.3319091796875 79.17852020263672 87.99741363525391 80.92634582519531 88.85268402099609 81.96820831298828 C 90.19351959228516 83.60157012939453 91.21166229248047 85.49485778808594 91.57621765136719 87.03274536132812 C 91.69119262695312 87.51838684082031 91.73551940917969 87.73968505859375 91.74824523925781 87.80644226074219 L 91.85366821289062 88.28057098388672 L 95.03759765625 102.599967956543 L 95.22303009033203 103.4339065551758 L 94.39022827148438 103.624397277832 L 86.20647430419922 105.4963455200195 L 85.36351013183594 105.6891708374023 Z" stroke="none"/>
                  <path d="M 84.78682708740234 80.03803253173828 C 84.69933319091797 80.03800964355469 84.61561584472656 80.04747772216797 84.53562164306641 80.06700897216797 L 84.46204376220703 80.08472442626953 C 83.13584136962891 80.40800476074219 81.82182312011719 86.01577758789062 82.58206176757812 89.22107696533203 C 82.71443176269531 89.78009033203125 82.74831390380859 89.96910095214844 82.74831390380859 89.96910095214844 L 86.01482391357422 104.6584777832031 L 94.19857788085938 102.7865295410156 L 90.90611267089844 87.97901916503906 C 90.90611267089844 87.97901916503906 90.87223052978516 87.79000091552734 90.73988342285156 87.23099517822266 C 90.03130340576172 84.24179840087891 86.62871551513672 80.03842926025391 84.78682708740234 80.03803253173828 M 84.78651428222656 78.31900787353516 C 84.78663635253906 78.31901550292969 84.78704833984375 78.31900787353516 84.78722381591797 78.31900787353516 C 86.59066772460938 78.31939697265625 88.35472106933594 80.00717926025391 89.51699829101562 81.42298126220703 C 90.93685150146484 83.15252685546875 92.01930236816406 85.17552947998047 92.41255187988281 86.83449554443359 C 92.52288818359375 87.30052947998047 92.571533203125 87.53715515136719 92.58984375 87.63149261474609 L 95.87661743164062 102.4134140014648 C 96.08180236816406 103.3361892700195 95.50340270996094 104.2514877319336 94.58189392089844 104.4622650146484 L 86.39813232421875 106.3342208862305 C 85.95195770263672 106.4362335205078 85.48346710205078 106.3561859130859 85.09652709960938 106.1116638183594 C 84.70958709716797 105.8671569824219 84.43614196777344 105.4784240722656 84.3367919921875 105.031623840332 L 81.07025909423828 90.34218597412109 C 81.06434631347656 90.31555938720703 81.06136322021484 90.30196380615234 81.05693817138672 90.27632904052734 C 81.05166625976562 90.2491455078125 81.01467895507812 90.06224060058594 80.90929412841797 89.61717987060547 C 80.50417327880859 87.90909576416016 80.560302734375 85.51298522949219 81.05957794189453 83.20819854736328 C 81.29026031494141 82.14334869384766 81.59877014160156 81.19126892089844 81.95175933837891 80.45486450195312 C 82.50968170166016 79.29095458984375 83.1976318359375 78.62358856201172 84.05492401123047 78.41460418701172 L 84.13131713867188 78.39620971679688 C 84.34235382080078 78.34498596191406 84.56276702880859 78.31900787353516 84.78651428222656 78.31900787353516 L 84.78651428222656 78.31900787353516 Z" stroke="none" fill="#fff"/>
                </g>
                <path id="Path_5164" data-name="Path 5164" d="M91.669,124.907l.476,2,5.825-1.332-.495-2.087" transform="translate(-82.433 -100.157)" fill="#ff56ba" stroke="#fff" stroke-linecap="round" stroke-linejoin="round" stroke-width="1.719"/>
                <ellipse id="Ellipse_279" data-name="Ellipse 279" cx="2.096" cy="2.125" rx="2.096" ry="2.125" transform="translate(6.086 5.06)" fill="#fff"/>
              </g>
              <path id="Path_5165" data-name="Path 5165" d="M91.938,134.912l.862-2.864.539.172-.8,3.049Zm8.459-1.864-1.644-2.6-.489.289,1.628,2.792Zm-4.179,2.687-.715-3.787.574-.219,1.037,3.79Z" transform="translate(-82.559 -103.379)" fill="#5400ef" fill-rule="evenodd"/>
            </g>
            <line id="Line_809" data-name="Line 809" y1="7.72" x2="33.745" transform="translate(13.777 43.332)" fill="#fef5e4" stroke="#ff56ba" stroke-linecap="round" stroke-linejoin="round" stroke-width="2.125"/>
            <line id="Line_810" data-name="Line 810" y1="7.377" x2="32.245" transform="translate(15.28 50.436)" fill="#fef5e4" stroke="#ff56ba" stroke-linecap="round" stroke-linejoin="round" stroke-width="2.125"/>
            <line id="Line_811" data-name="Line 811" y1="6.09" x2="26.621" transform="translate(16.784 58.484)" fill="#fef5e4" stroke="#ff56ba" stroke-linecap="round" stroke-linejoin="round" stroke-width="2.125"/>
            <line id="Line_812" data-name="Line 812" x2="1.86" y2="8.367" transform="translate(32.338 61.282)" fill="#fef5e4" stroke="#ff56ba" stroke-linecap="round" stroke-linejoin="round" stroke-width="2.125"/>
            <line id="Line_813" data-name="Line 813" x2="1.86" y2="8.367" transform="translate(25.589 62.826)" fill="#fef5e4" stroke="#ff56ba" stroke-linecap="round" stroke-linejoin="round" stroke-width="2.125"/>
            <line id="Line_814" data-name="Line 814" x2="1.86" y2="8.367" transform="translate(18.84 64.37)" fill="#fef5e4" stroke="#ff56ba" stroke-linecap="round" stroke-linejoin="round" stroke-width="2.125"/>
          </g>
          <g id="Group_4452" data-name="Group 4452" transform="translate(63.601 7.064)">
            <path id="Path_5166" data-name="Path 5166" d="M116.568,34.288l2.563-9.087a1.866,1.866,0,0,1,.105-.374l0-.006h0a1.82,1.82,0,0,1,.89-.957,1.8,1.8,0,0,1,2.414.859,1.856,1.856,0,0,1,.02,1.546c-.019.042-.039.083-.06.123l-4.2,8.679h0a.946.946,0,0,1-1.7-.028A.977.977,0,0,1,116.568,34.288Z" transform="translate(-111.33 -23.682)" fill="#5400ef"/>
            <path id="Path_5167" data-name="Path 5167" d="M107.475,35.639l-.718-7.053a1.407,1.407,0,0,1-.03-.29v0h0a1.383,1.383,0,0,1,.356-.919A1.343,1.343,0,0,1,109,27.286a1.382,1.382,0,0,1,.44,1.071c0,.034,0,.069-.008.1l-.534,7.233h0a.725.725,0,0,1-.184.417.706.706,0,0,1-1.008.045A.725.725,0,0,1,107.475,35.639Z" transform="translate(-106.727 -25.183)" fill="#5400ef"/>
            <path id="Path_5168" data-name="Path 5168" d="M125.682,41.687l3.781-5.964a1.368,1.368,0,0,1,.156-.245l0,0h0a1.35,1.35,0,0,1,2.394.655,1.389,1.389,0,0,1-.316,1.115c-.022.026-.046.051-.07.075l-4.87,5.312h0a.706.706,0,0,1-.4.209.715.715,0,0,1-.815-.6A.727.727,0,0,1,125.682,41.687Z" transform="translate(-115.578 -28.906)" fill="#5400ef"/>
          </g>
        </g>
      </g>
    </g>
  </g>
</svg>
