<svg xmlns="http://www.w3.org/2000/svg" width="20" height="18" viewBox="0 0 20 18">
  <g id="Group_9664" data-name="Group 9664" transform="translate(-266.533 -21)">
    <g id="Rectangle_1597" data-name="Rectangle 1597" transform="translate(266.533 21)" fill="none" stroke="#fff" stroke-width="1.5">
      <rect width="20" height="18" rx="3" stroke="none"/>
      <rect x="0.75" y="0.75" width="18.5" height="16.5" rx="2.25" fill="none"/>
    </g>
    <g id="Polygon_2" data-name="Polygon 2" transform="translate(282.033 25.021) rotate(90)" fill="none">
      <path d="M4.152,1.357a1,1,0,0,1,1.7,0l3.2,5.113A1,1,0,0,1,8.2,8H1.8A1,1,0,0,1,.956,6.47Z" stroke="none"/>
      <path d="M 5.000001430511475 2.830193042755127 L 2.706370830535889 6.500004768371582 L 7.29362678527832 6.500004768371582 L 5.000001430511475 2.830193042755127 M 5 0.8867921829223633 C 5.326082706451416 0.8867921829223633 5.652164936065674 1.043459415435791 5.848000049591064 1.356794834136963 L 9.043749809265137 6.470004558563232 C 9.460029602050781 7.136044502258301 8.981189727783203 8.000004768371582 8.19575023651123 8.000004768371582 L 1.80424976348877 8.000004768371582 C 1.018810272216797 8.000004768371582 0.5399703979492188 7.136044502258301 0.9562501907348633 6.470004558563232 L 4.151999950408936 1.356794834136963 C 4.347835063934326 1.043459415435791 4.673917293548584 0.8867921829223633 5 0.8867921829223633 Z" stroke="none" fill="#61d3cb"/>
    </g>
  </g>
</svg>
