<svg xmlns="http://www.w3.org/2000/svg" width="15.11" height="20.87" viewBox="0 0 15.11 20.87">
  <g id="Group_4401" data-name="Group 4401" transform="translate(-1428.15 62.85)">
    <path id="icon-pin" d="M9.81,10.51a2.415,2.415,0,0,0,1.71.675A2.381,2.381,0,0,0,13.9,8.8,2.381,2.381,0,0,0,11.52,6.415,2.381,2.381,0,0,0,9.135,8.8,2.415,2.415,0,0,0,9.81,10.51Z" transform="translate(1424.185 -64.095)" fill="none" stroke="#61d3cb" stroke-linecap="round" stroke-linejoin="round" stroke-width="1.7"/>
    <g id="Sticker-Sheets" transform="translate(1428.185 -62.095)">
      <g id="Icons" transform="translate(-791 -626)">
        <g id="Light" transform="translate(117 -737)">
          <g id="Icon_Map-Pin" data-name="Icon/Map-Pin" transform="translate(670 1361)">
            <path id="icon-pin-2" data-name="icon-pin" d="M6.75,4.075A6.5,6.5,0,0,1,11.52,2.1a6.465,6.465,0,0,1,4.747,1.957A6.465,6.465,0,0,1,18.225,8.8a9,9,0,0,1-.7,3.195A19.7,19.7,0,0,1,15.84,15.37q-.99,1.575-1.958,2.947T12.24,20.5l-.72.765q-.27-.315-.72-.832t-1.62-2.07a34.682,34.682,0,0,1-2.048-3.015,21.9,21.9,0,0,1-1.6-3.307,9.1,9.1,0,0,1-.72-3.24A6.428,6.428,0,0,1,6.75,4.075Z" fill="none" stroke="#fff" stroke-linecap="round" stroke-linejoin="round" stroke-width="1.7"/>
          </g>
        </g>
      </g>
    </g>
  </g>
</svg>
