<?xml version="1.0" encoding="utf-8"?>
<!-- Generator: Adobe Illustrator 26.0.1, SVG Export Plug-In . SVG Version: 6.00 Build 0)  -->
<svg version="1.1" id="Capa_1" xmlns="http://www.w3.org/2000/svg" xmlns:xlink="http://www.w3.org/1999/xlink" x="0px" y="0px"
	 viewBox="0 0 1451 888.45" style="enable-background:new 0 0 1451 888.45;" xml:space="preserve">
<style type="text/css">
	.st0{clip-path:url(#SVGID_00000016780843221588976810000003993212148429741731_);fill:#5400EF;}
	.st1{clip-path:url(#SVGID_00000016780843221588976810000003993212148429741731_);fill:#FFFFFF;}
	.st2{opacity:0.95;clip-path:url(#SVGID_00000016780843221588976810000003993212148429741731_);}
	.st3{clip-path:url(#SVGID_00000025432824271597616020000011496136230561727371_);fill:#160D32;}
	.st4{clip-path:url(#SVGID_00000016780843221588976810000003993212148429741731_);fill:#EAD338;}
</style>
<g>
	<defs>
		<rect id="SVGID_1_" width="1451" height="888.45"/>
	</defs>
	<clipPath id="SVGID_00000146496413894350501110000018284614152943098775_">
		<use xlink:href="#SVGID_1_"  style="overflow:visible;"/>
	</clipPath>
	<path style="clip-path:url(#SVGID_00000146496413894350501110000018284614152943098775_);fill:#5400EF;" d="M1423.46,317.98
		c-0.87-4.93-6.31-6.06-10.34-6.38c-5.21-0.42-10.67,1.3-15.47,3.1c-1.4,0.52-2.85,0.99-4.3,1.41
		c-41.97-80.18-158.77-95.85-244.17-60.29c-35.31-51.18-72.32-91.78-114.29-121.97c1.03-12.11-2.12-26.62-3.58-34.33
		c-2.96-15.64-7.55-32.01-13.87-47.41c-13.05-31.81-16.42-26.94-31.97-0.26c-8.62,14.82-20.1,27.04-32.75,38.72
		c-78.79-28.23-175.46-29.84-303.48-5.25c-100.95,19.39-182.59,67.57-244.15,133.09c-4.51-0.83-8.93-1.79-13.1-3.1
		c-17.6-5.5-33.66-14.5-48.58-25.16c-21.8-15.59-40.95-16.98-32.83,20.65c6.02,27.85,22.14,56.04,44.72,70.63
		c-23.38,35.4-42.19,73.94-56.37,114.43c-0.96,3.2-7.73,27.08-16.17,91.22c-8.81,25.27-24.01,45.57-50.63,25.53
		c-60.14-45.33-84.77-106.34-93.93-179.14c3.58-1.37,6.88-2.83,9.38-4.09c14.37-7.27,24.34-22.29,23.69-38.92
		c-0.03-0.79-1.07-1.47-1.81-1.07c-5.03,2.54-10.06,11.09-15.09,11.97c-5.09,0.9-9.83,3.28-14.93,4.31
		c-4.47,0.87-8.95,1.68-13.45,2.43c0.52-4.55,1.03-9.1,1.65-13.66c1.54-11.27,2.7-22.77,5.42-33.82
		c2.88-11.73,10.49-17.81,16.54-27.37c0.44-0.68,0.04-1.49-0.8-1.47c-24.94,0.32-38.12,30.22-46.23,60.36
		c-1.22-7.82-2.45-15.69-4.71-23.14c-2.78-9.16-6.89-19.25-12.46-27.13c-1.04-1.46,9.12-16.96,10.38-20.01
		c0.59-1.45-0.96-2.45-2.19-1.78c-7.88,4.38-12.74,11.08-20.22,15.96c-2.46,1.6-3.08,4.81-2.22,7.45
		c5.7,17.12,5.88,36.26,7.36,54.16c0.04,0.51,0.06,1.04,0.1,1.55c-6.69-7.8-13.88-15.2-21.31-22.17
		c-4.57-4.29-22.13-14.07-20.68-21.56c1.34-6.9,2.21-12.53,0.9-19.45c-0.1-0.49-0.85-0.89-1.18-0.34
		c-4.92,7.69-6.66,17.58-13.16,24.19c-1.62,1.64-2.09,4.88-1.12,6.94c12.2,26,35.06,44.4,51.12,68c0,0,0.01,0.01,0.02,0.03
		c-16.73,131.67,77.63,251.57,195.63,287.31c-0.44,5.38-0.88,10.89-1.31,16.51c3.58,73.95,15.73,148.75,28.34,218.59
		c20.24,112.01,63.12,219.21,141.42,304.34c26.59,28.92,57.84,53.52,92.12,73.78c192.8,114,607.96,33.23,734.51-174.26
		c15.19-24.89,28.1-51.46,38.39-79.51c61.51-167.69-7.68-448.44-98.64-631.81c-21.6-43.59,4.34-52.62,39.5-52.16
		c41.53,0.55,83.45,15.96,114.4,46.49c-0.13,0.44-0.24,0.94-0.4,1.36c-1.73,4.62-3.96,8.97-5.57,13.64c-1,2.88-4.05,7.91-2.95,11.06
		c1.84,5.2,1.92,10.68,6.35,14.41c0.39,0.32,1.14,0.28,1.26-0.32c0.7-3.48-0.04-9.6,2.95-11.69c3.72-2.63,7.25-5.69,10.19-9.16
		c1.83-2.15,3.81-4.82,5.56-7.71c0.83,2.4,1.66,4.8,2.48,7.2c2.89,8.55,5.22,17.15,10.21,24.5c-2.66,4.48-5.99,8.31-8.08,13.28
		c-0.19,0.46,0.38,0.72,0.72,0.57c9.39-4.22,21.99-9.14,20.05-21.47c-1.77-11.18-4.52-23.43-8.38-35c0.29-0.35,0.56-0.7,0.82-1.05
		c7.14,3.9,14.13,8.04,20.85,12.78c5.92,4.17,6.56,2.42,4.95,8.17c-1.42,5.07-2.82,9.61-1.59,14.77c0.15,0.6,0.97,0.87,1.39,0.4
		c6.04-6.65,13.54-18.18,8.52-26.76c-4.69-7.99-12.65-15.11-21.19-21.21c3.98-1.65,8.49-3.18,12.27-5.52
		c3.45,3.33,6.39,7.29,10.01,10.43c0.89,0.76,2.34,0.08,2.05-1.15C1428.52,329.48,1424.58,324.21,1423.46,317.98"/>
	<path style="clip-path:url(#SVGID_00000146496413894350501110000018284614152943098775_);fill:#FFFFFF;" d="M809.13,327.73
		c30.7-54.96,68.58-62.46,116.58-20.58c15.41,13.45,55.38-20.28,65.82-23.44c0.66-0.2,0.87-1.15,0.13-1.41
		c-11.17-4.26-24.05-5.36-35.99-5.17c-0.36-0.56-0.64-1.11-1.06-1.64c-22.46-28.12-61.92-65.45-102.08-57.79
		c-43.66,8.31-68.42,50.93-81.58,89.99C763.36,330.21,796.66,350.02,809.13,327.73"/>
	<path style="clip-path:url(#SVGID_00000146496413894350501110000018284614152943098775_);fill:#FFFFFF;" d="M564.59,273.47
		c-49.73,13.38-76.08,64.11-84.48,111.07c-0.29,1.65-0.4,3.24-0.35,4.75c-10.8,2.41-21.94,5.66-30.92,11.3
		c-1.18,0.74-1.24,3.04,0.53,3.04c11.19-0.02,69.16,10.4,75.61-8.82c21.5-64.15,66.75-84.68,118.27-32.22
		c17.73,18.06,49.43-0.12,38.11-24.57C661.18,294.42,613.89,260.21,564.59,273.47"/>
	<path style="clip-path:url(#SVGID_00000146496413894350501110000018284614152943098775_);fill:#FFFFFF;" d="M802.56,808.26
		c129.75-28.59,306.52-79.05,348.23-223.37c18.1-62.61-2.29-135.25-51.26-177.27c-71.31-61.16-167.99,0.56-235.27,31.06
		c-78.18,35.43-155.8,43.93-240.59,36.68c-48.46-4.15-104.91-11.44-151.34,8.12c-67.08,28.26-94.4,78.49-82.28,150.83
		C419.66,811,663.95,835.95,802.56,808.26"/>
	<path style="clip-path:url(#SVGID_00000146496413894350501110000018284614152943098775_);fill:#FFFFFF;" d="M938.63,537.79
		c-0.12,0.13-0.25,0.24-0.36,0.4c-0.02-0.53-0.16-1.01-0.21-1.53C938.24,537.05,938.45,537.43,938.63,537.79"/>
	<g style="opacity:0.95;clip-path:url(#SVGID_00000146496413894350501110000018284614152943098775_);">
		<g>
			<defs>
				<rect id="SVGID_00000129197937859588018690000006549694738438962615_" x="422.84" y="420.23" width="699.56" height="369.29"/>
			</defs>
			<clipPath id="SVGID_00000128475820863413103900000010613368378519599018_">
				<use xlink:href="#SVGID_00000129197937859588018690000006549694738438962615_"  style="overflow:visible;"/>
			</clipPath>
			<path style="clip-path:url(#SVGID_00000128475820863413103900000010613368378519599018_);fill:#160D32;" d="M481.66,511.59
				c0,0,3.78-12.28,122.61-6.14c118.82,6.14,227.83-8.13,314.77-57.8c86.94-49.67,153.85-16.68,153.85-16.68
				s45.76,19.66,49.17,93.92c3.41,74.26-16.03,149.98-170.92,210.34c-154.89,60.37-261.71,64.95-369.25,40.18
				c-107.54-24.78-163.63-86.32-158.75-171.52C428.01,518.69,481.66,511.59,481.66,511.59"/>
		</g>
	</g>
	<path style="clip-path:url(#SVGID_00000146496413894350501110000018284614152943098775_);fill:#FFFFFF;" d="M625.5,644.33
		c13.6,17.1,21.33,38.67,26.86,61.52c4.32,22.2,7.32,44.85,12.83,66.35c1.19,6.12,2.46,12.15,3.86,17.98
		c-49.2-2.43-98.22-12.64-140.64-33.3C546.61,719.82,591.96,602.16,625.5,644.33"/>
	<path style="clip-path:url(#SVGID_00000146496413894350501110000018284614152943098775_);fill:#FFFFFF;" d="M955.85,587.87
		c15.72-64.06,100.03,52.13,117.91,71.72c0.46,0.5,1.03,0.55,1.56,0.7c-32.12,33.25-75.49,57.44-121.75,75.74
		C949.1,687.48,944.21,635.32,955.85,587.87"/>
	<path style="clip-path:url(#SVGID_00000146496413894350501110000018284614152943098775_);fill:#FFFFFF;" d="M1011.25,412.7
		c-1.99,25.87-5.51,51.81-14.02,76.34c-8.91,25.74-48.62-20.41-52.68-24.74c-7.71-8.24-15.18-16.61-23.09-24.59
		C950.77,426.08,980.63,414.79,1011.25,412.7"/>
	<path style="clip-path:url(#SVGID_00000146496413894350501110000018284614152943098775_);fill:#FFFFFF;" d="M592.06,500.94
		c-6.42,28.29-13.6,57.16-25.33,83.54c-10.47,23.59-37.21-15.33-44.87-25.53c-12.92-17.18-25.78-34.04-37.17-52.18
		C519.73,496.83,561.6,498.93,592.06,500.94"/>
	<path style="clip-path:url(#SVGID_00000146496413894350501110000018284614152943098775_);fill:#EAD338;" d="M826.86,565.82
		c-8.06-13.99-27.07-22.57-42.54-16.06c-13.3,5.58-16.57,14.25-14.51,23.91c3.06,14.38,14.45,18.28,16.63,29.35
		c2.39,12.08-5.81,18.86-16.14,19.97c-9.31,1-18.82-2.95-20.45-12.75c-1.54-9.3,8.75-18.62,6.44-32.84
		c-0.79-4.91-2.35-9.18-6.16-12.09c-15.71-12-33.49,7.36-39.44,20.79c-8.22,18.56-1.93,42.3,10.24,57.63
		c15.22,19.15,36.12,26.93,60.08,21.86C825.01,656.26,849.28,604.71,826.86,565.82"/>
</g>
</svg>
